<svg xmlns="http://www.w3.org/2000/svg" xmlns:xlink="http://www.w3.org/1999/xlink" width="512" zoomAndPan="magnify" viewBox="0 0 384 383.999986" height="512" preserveAspectRatio="xMidYMid meet" version="1.0"><defs><clipPath id="12923d9abb"><path d="M 3.910156 3.910156 L 380.410156 3.910156 L 380.410156 380.410156 L 3.910156 380.410156 Z M 3.910156 3.910156 " clip-rule="nonzero"/></clipPath><clipPath id="e8b081030c"><path d="M 51 223 L 333 223 L 333 380.410156 L 51 380.410156 Z M 51 223 " clip-rule="nonzero"/></clipPath></defs><g clip-path="url(#12923d9abb)"><path fill="#ffffff" d="M 380.097656 192.003906 C 380.097656 240.125 362.042969 284.011719 332.304688 317.273438 C 297.871094 355.832031 247.777344 380.09375 192.007812 380.09375 C 136.238281 380.09375 86.125 355.832031 51.707031 317.273438 C 21.972656 284.011719 3.914062 240.125 3.914062 192.003906 C 3.914062 88.128906 88.117188 3.914062 192.007812 3.914062 C 295.878906 3.914062 380.097656 88.128906 380.097656 192.003906 " fill-opacity="1" fill-rule="nonzero"/></g><path fill="#3a86ff" d="M 192.007812 226.652344 C 226.097656 226.652344 257.144531 188.082031 257.144531 145.730469 C 257.144531 105.71875 249.40625 66.148438 192.007812 66.148438 C 134.597656 66.148438 126.855469 105.71875 126.855469 145.730469 C 126.855469 188.082031 157.910156 226.652344 192.007812 226.652344 " fill-opacity="1" fill-rule="nonzero"/><g clip-path="url(#e8b081030c)"><path fill="#3a86ff" d="M 332.304688 317.273438 C 297.871094 355.832031 247.777344 380.09375 192.007812 380.09375 C 136.238281 380.09375 86.125 355.832031 51.707031 317.273438 C 51.109375 294.042969 66.582031 240.21875 145.484375 223.648438 C 158.980469 237.425781 175.59375 245.214844 192.007812 245.214844 C 208.417969 245.214844 225.015625 237.425781 238.511719 223.648438 C 317.433594 240.21875 332.886719 294.042969 332.304688 317.273438 " fill-opacity="1" fill-rule="nonzero"/></g></svg>